<svg xmlns="http://www.w3.org/2000/svg" width="1097" height="187" viewBox="0 0 1097 187">
    <path d="M24 27L24 163 52 163Q88 163 105 146 122 130 122 94 122 59 105 43 88 27 52 27zM0 7L49 7Q99 7 123 28 147 49 147 94 147 140 123 161 99 182 48 182L0 182zM280 111L280 122 181 122Q182 144 194 156 206 167 227 167 240 167 251 164 264 161 275 155L275 175Q263 180 251 183 239 185 226 185 195 185 176 167 158 149 158 118 158 86 175 67 193 48 222 48 249 48 264 65 280 82 280 111zM259 105Q258 87 248 76 239 66 223 66 205 66 194 76 183 86 181 105zM282 51L305 51 346 161 387 51 410 51 361 182 331 182zM454 17L454 173 489 173Q528 173 546 154 565 135 565 95 565 54 546 36 528 17 488 17zM442 7L485 7Q533 7 555 28 578 49 577 94 578 140 555 161 533 182 485 182L442 182zM644 57Q624 57 612 73 601 89 600 116 601 144 612 160 624 176 644 176 664 176 675 160 688 144 687 116 688 89 675 73 664 57 644 57zM644 48Q669 48 683 66 698 85 698 116 698 149 683 167 669 186 644 186 619 186 604 167 590 149 589 116 590 85 604 66 619 48 644 48zM764 57Q744 57 732 73 721 89 720 116 721 144 732 160 744 176 764 176 784 176 795 160 808 144 807 116 808 89 795 73 784 57 764 57zM764 48Q789 48 803 66 818 85 818 116 818 149 803 167 789 186 764 186 739 186 724 167 710 149 709 116 710 85 724 66 739 48 764 48zM925 81L925 0 936 0 936 182 925 182 925 152Q918 169 909 176 896 185 884 185 861 185 845 166 830 147 829 117 830 86 845 67 861 48 884 48 896 48 909 57 918 64 925 81zM841 117Q841 149 854 162 868 176 883 176 898 176 911 162 925 149 924 117 925 85 911 71 898 57 883 57 868 57 854 71 841 85 841 117zM958 0L969 0 969 182 958 182zM1097 111L1097 118 998 118Q998 149 1010 162 1024 176 1051 176 1058 176 1069 173 1081 170 1092 164L1093 175Q1081 180 1069 183 1057 185 1049 185 1019 185 1004 169 987 152 987 118 987 83 1002 66 1018 48 1046 48 1072 48 1084 65 1097 82 1097 111zM1087 109Q1087 81 1074 68 1064 57 1046 57 1027 57 1013 69 1001 80 998 109z"/>
</svg>