<svg xmlns="http://www.w3.org/2000/svg" width="1280" height="276" viewBox="0 0 1280 276">
    <path d="M145 77C145 84 139 90 132 90 125 90 119 84 119 77 119 70 125 64 132 64 139 64 145 70 145 77z" fill="#444444" />
    <path d="M135 88C139 97 138 127 135 136L90 127 67 161" fill-opacity="0" stroke="#444444" stroke-width="6" stroke-linecap="round" stroke-linejoin="round" />
    <path d="M82 91L82 121 111 127" fill-opacity="0" stroke="#0000FF" stroke-width="3" stroke-linecap="round" stroke-linejoin="round" />
    <path d="M48 27L48 163 76 163Q112 163 129 146 146 130 146 94 146 59 129 43 112 27 76 27zM24 7L73 7Q123 7 147 28 171 49 171 94 171 140 147 161 123 182 72 182L24 182zM304 111L304 122 205 122Q206 144 218 156 230 167 251 167 264 167 275 164 288 161 299 155L299 175Q287 180 275 183 263 185 250 185 219 185 200 167 182 149 182 118 182 86 199 67 217 48 246 48 273 48 288 65 304 82 304 111zM283 105Q282 87 272 76 263 66 247 66 229 66 218 76 207 86 205 105zM306 51L329 51 370 161 411 51 434 51 385 182 355 182zM478 17L478 173 513 173Q552 173 570 154 589 135 589 95 589 54 570 36 552 17 512 17zM466 7L509 7Q557 7 579 28 602 49 601 94 602 140 579 161 557 182 509 182L466 182zM668 57Q648 57 636 73 625 89 624 116 625 144 636 160 648 176 668 176 688 176 699 160 712 144 711 116 712 89 699 73 688 57 668 57zM668 48Q693 48 707 66 722 85 722 116 722 149 707 167 693 186 668 186 643 186 628 167 614 149 613 116 614 85 628 66 643 48 668 48zM788 57Q768 57 756 73 745 89 744 116 745 144 756 160 768 176 788 176 808 176 819 160 832 144 831 116 832 89 819 73 808 57 788 57zM788 48Q813 48 827 66 842 85 842 116 842 149 827 167 813 186 788 186 763 186 748 167 734 149 733 116 734 85 748 66 763 48 788 48zM949 81L949 0 960 0 960 182 949 182 949 152Q942 169 933 176 920 185 908 185 885 185 869 166 854 147 853 117 854 86 869 67 885 48 908 48 920 48 933 57 942 64 949 81zM865 117Q865 149 878 162 892 176 907 176 922 176 935 162 949 149 948 117 949 85 935 71 922 57 907 57 892 57 878 71 865 85 865 117zM982 0L993 0 993 182 982 182zM1121 111L1121 118 1022 118Q1022 149 1034 162 1048 176 1075 176 1082 176 1093 173 1105 170 1116 164L1117 175Q1105 180 1093 183 1081 185 1073 185 1043 185 1028 169 1011 152 1011 118 1011 83 1026 66 1042 48 1070 48 1096 48 1108 65 1121 82 1121 111zM1111 109Q1111 81 1098 68 1088 57 1070 57 1051 57 1037 69 1025 80 1022 109zM0 208L1280 208 1280 212 0 212 0 208zM41.3 233.4L33.8 253.1 48.7 253.1zM39.8 231L42.9 231 56.2 266 53.6 266 49.4 255 33.1 255 28.9 266 26.4 266zM92.6 245.8L92.6 229.5 94.7 229.5 94.7 266 92.6 266 92.6 260Q91.2 263.5 89.4 264.7 86.8 266.7 84.4 266.7 79.8 266.7 76.7 262.9 73.6 259.1 73.6 252.9 73.6 246.7 76.7 242.9 79.8 239.1 84.4 239.1 86.8 239.1 89.4 241.1 91.2 242.3 92.6 245.8zM75.9 252.9Q75.9 259.3 78.6 262 81.3 264.8 84.3 264.8 87.2 264.8 89.9 262 92.6 259.3 92.6 252.9 92.6 246.5 89.9 243.8 87.2 241 84.3 241 81.3 241 78.6 243.8 75.9 246.5 75.9 252.9zM122 251.8L122 253.2 102 253.2Q102 259.5 104.5 262 107.2 264.8 112.6 264.8 114 264.8 116.3 264.2 118.7 263.6 121 262.4L121 264.7Q118.6 265.6 116.2 266.2 113.8 266.7 112.3 266.7 106.3 266.7 103.2 263.4 99.9 259.9 99.9 253.2 99.9 246.1 102.9 242.7 106 239.1 111.6 239.1 116.7 239.1 119.4 242.5 122 246.1 122 251.8zM119.8 251.3Q119.8 245.8 117.3 243.3 115.2 241 111.6 241 107.7 241 105.1 243.4 102.6 245.5 102.1 251.3zM126.1 239.8L128.4 239.8 137.3 263.6 146.2 239.8 148.5 239.8 138.7 266 135.9 266zM174.9 251.8L174.9 253.2 155 253.2Q155 259.5 157.4 262 160.2 264.8 165.5 264.8 166.9 264.8 169.3 264.2 171.6 263.6 173.9 262.4L173.9 264.7Q171.6 265.6 169.1 266.2 166.7 266.7 165.3 266.7 159.2 266.7 156.1 263.4 152.8 259.9 152.8 253.2 152.8 246.1 155.8 242.7 159 239.1 164.5 239.1 169.7 239.1 172.3 242.5 174.9 246.1 174.9 251.8zM172.7 251.3Q172.7 245.8 170.2 243.3 168.1 241 164.6 241 160.6 241 158 243.4 155.6 245.5 155.1 251.3zM181.5 229.5L183.6 229.5 183.6 266 181.5 266zM201.6 241Q197.6 241 195.3 244.2 192.9 247.4 192.9 252.9 192.9 258.4 195.2 261.6 197.6 264.8 201.6 264.8 205.6 264.8 207.9 261.6 210.3 258.4 210.3 252.9 210.3 247.5 207.9 244.3 205.6 241 201.6 241zM201.6 239.1Q206.6 239.1 209.5 242.9 212.4 246.6 212.4 252.9 212.4 259.3 209.5 263 206.6 266.8 201.6 266.8 196.5 266.8 193.6 263.1 190.7 259.3 190.7 252.9 190.7 246.6 193.6 242.8 196.5 239.1 201.6 239.1zM221.3 260L221.3 276 219.2 276 219.2 239.8 221.3 239.8 221.3 245.8Q222.8 242.3 224.5 241.1 227.2 239.1 229.5 239.1 234.2 239.1 237.3 242.9 240.4 246.7 240.4 252.9 240.4 259.1 237.3 262.9 234.2 266.7 229.5 266.7 227.2 266.7 224.5 264.7 222.8 263.5 221.3 260zM238.1 252.9Q238.1 246.5 235.4 243.8 232.7 241 229.7 241 226.8 241 224 243.8 221.4 246.5 221.4 252.9 221.4 259.3 224 262 226.8 264.8 229.7 264.8 232.7 264.8 235.4 262 238.1 259.3 238.1 252.9zM267.6 251.8L267.6 253.2 247.7 253.2Q247.7 259.5 250.1 262 252.9 264.8 258.2 264.8 259.6 264.8 262 264.2 264.3 263.6 266.6 262.4L266.6 264.7Q264.3 265.6 261.8 266.2 259.4 266.7 258 266.7 251.9 266.7 248.8 263.4 245.5 259.9 245.5 253.2 245.5 246.1 248.5 242.7 251.7 239.1 257.2 239.1 262.4 239.1 265 242.5 267.6 246.1 267.6 251.8zM265.4 251.3Q265.4 245.8 262.9 243.3 260.9 241 257.3 241 253.4 241 250.7 243.4 248.3 245.5 247.8 251.3zM288.4 241.6Q287.9 241.3 287 241.2 286.2 241 285 241 281 241 278.4 244 276.3 246.4 276.3 252.2L276.3 266 274.2 266 274.2 239.8 276.3 239.8 276.3 244.7Q277.4 242.6 279.3 241.1 281.9 239.1 285.5 239.1 286.4 239.1 287.1 239.2 287.8 239.2 288.4 239.4zM324 250.2L324 266 321.8 266 321.8 250.3Q321.8 245.2 320.2 243.1 318.6 241 315.4 241 311.6 241 309 243.3 306.3 245.5 306.3 251.2L306.3 266 304.2 266 304.2 239.8 306.3 239.8 306.3 244.7Q307.5 242.3 309.3 241 312.1 239.1 315.5 239.1 319.4 239.1 321.7 241.8 324 244.4 324 250.2zM352.5 251.8L352.5 253.2 332.6 253.2Q332.6 259.5 335.1 262 337.8 264.8 343.2 264.8 344.6 264.8 346.9 264.2 349.2 263.6 351.5 262.4L351.5 264.7Q349.2 265.6 346.8 266.2 344.3 266.7 342.9 266.7 336.8 266.7 333.8 263.4 330.4 259.9 330.4 253.2 330.4 246.1 333.5 242.7 336.6 239.1 342.2 239.1 347.3 239.1 349.9 242.5 352.5 246.1 352.5 251.8zM350.4 251.3Q350.4 245.8 347.9 243.3 345.8 241 342.2 241 338.3 241 335.6 243.4 333.2 245.5 332.7 251.3zM361.4 232.3L361.4 239.8 370.3 239.8 370.3 241.6 361.4 241.6 361.4 257.4Q361.4 260.4 362.2 261.5 363.8 264.2 366.8 264.2L370.3 264.2 370.3 266 366.9 266Q363.7 266 361.5 264.1 359.2 262.3 359.2 257.4L359.2 241.6 356.1 241.6 356.1 239.8 359.2 239.8 359.2 232.3zM373 239.8L375.3 239.8 381.4 263.1 387.6 239.8 390.3 239.8 396.5 263.3 402.6 239.8 404.8 239.8 398 266 395 266 388.9 243 382.9 266 379.9 266zM421.5 241Q417.5 241 415.1 244.2 412.8 247.4 412.8 252.9 412.8 258.4 415.1 261.6 417.4 264.8 421.5 264.8 425.5 264.8 427.8 261.6 430.1 258.4 430.1 252.9 430.1 247.5 427.8 244.3 425.5 241 421.5 241zM421.5 239.1Q426.5 239.1 429.4 242.9 432.3 246.6 432.3 252.9 432.3 259.3 429.4 263 426.5 266.8 421.5 266.8 416.4 266.8 413.5 263.1 410.6 259.3 410.6 252.9 410.6 246.6 413.5 242.8 416.4 239.1 421.5 239.1zM453.3 241.6Q452.8 241.3 451.9 241.2 451.1 241 449.9 241 445.9 241 443.3 244 441.2 246.4 441.2 252.2L441.2 266 439.1 266 439.1 239.8 441.2 239.8 441.2 244.7Q442.3 242.6 444.2 241.1 446.8 239.1 450.4 239.1 451.3 239.1 452 239.2 452.7 239.2 453.3 239.4zM458.5 229.5L460.7 229.5 460.7 251.7 473.7 239.8 476.7 239.8 463.1 252.1 477.1 266 474.3 266 460.7 252.5 460.7 266 458.5 266z"/>
</svg>