<svg xmlns="http://www.w3.org/2000/svg" width="1280" height="276" viewBox="0 0 1280 276">
	<path d="M136,104 C139,120 137,135 132,141 L92,136 L68,161" fill="none" stroke="#444" stroke-width="6" stroke-linecap="round" stroke-linejoin="round" />
	<path d="M85,101 L85,131 L116,135" fill="none" stroke="#00F" stroke-width="3" stroke-linecap="round" stroke-linejoin="round" />
    <ellipse cx="134" cy="93" rx="13" ry="13" fill="#444" />
	<path d="M41.3 233.4L33.8 253.1 48.7 253.1zM39.8 231L42.9 231 56.2 266 53.6 266 49.4 255 33.1 255 28.9 266 26.4 266zM92.6 245.8L92.6 229.5 94.7 229.5 94.7 266 92.6 266 92.6 260Q91.2 263.5 89.4 264.7 86.8 266.7 84.4 266.7 79.8 266.7 76.7 262.9 73.6 259.1 73.6 252.9 73.6 246.7 76.7 242.9 79.8 239.1 84.4 239.1 86.8 239.1 89.4 241.1 91.2 242.3 92.6 245.8zM75.9 252.9Q75.9 259.3 78.6 262 81.3 264.8 84.3 264.8 87.2 264.8 89.9 262 92.6 259.3 92.6 252.9 92.6 246.5 89.9 243.8 87.2 241 84.3 241 81.3 241 78.6 243.8 75.9 246.5 75.9 252.9zM122 251.8L122 253.2 102 253.2Q102 259.5 104.5 262 107.2 264.8 112.6 264.8 114 264.8 116.3 264.2 118.7 263.6 121 262.4L121 264.7Q118.6 265.6 116.2 266.2 113.8 266.7 112.3 266.7 106.3 266.7 103.2 263.4 99.9 259.9 99.9 253.2 99.9 246.1 102.9 242.7 106 239.1 111.6 239.1 116.7 239.1 119.4 242.5 122 246.1 122 251.8zM119.8 251.3Q119.8 245.8 117.3 243.3 115.2 241 111.6 241 107.7 241 105.1 243.4 102.6 245.5 102.1 251.3zM126.1 239.8L128.4 239.8 137.3 263.6 146.2 239.8 148.5 239.8 138.7 266 135.9 266zM174.9 251.8L174.9 253.2 155 253.2Q155 259.5 157.4 262 160.2 264.8 165.5 264.8 166.9 264.8 169.3 264.2 171.6 263.6 173.9 262.4L173.9 264.7Q171.6 265.6 169.1 266.2 166.7 266.7 165.3 266.7 159.2 266.7 156.1 263.4 152.8 259.9 152.8 253.2 152.8 246.1 155.8 242.7 159 239.1 164.5 239.1 169.7 239.1 172.3 242.5 174.9 246.1 174.9 251.8zM172.7 251.3Q172.7 245.8 170.2 243.3 168.1 241 164.6 241 160.6 241 158 243.4 155.6 245.5 155.1 251.3zM181.5 229.5L183.6 229.5 183.6 266 181.5 266zM201.6 241Q197.6 241 195.3 244.2 192.9 247.4 192.9 252.9 192.9 258.4 195.2 261.6 197.6 264.8 201.6 264.8 205.6 264.8 207.9 261.6 210.3 258.4 210.3 252.9 210.3 247.5 207.9 244.3 205.6 241 201.6 241zM201.6 239.1Q206.6 239.1 209.5 242.9 212.4 246.6 212.4 252.9 212.4 259.3 209.5 263 206.6 266.8 201.6 266.8 196.5 266.8 193.6 263.1 190.7 259.3 190.7 252.9 190.7 246.6 193.6 242.8 196.5 239.1 201.6 239.1zM221.3 260L221.3 276 219.2 276 219.2 239.8 221.3 239.8 221.3 245.8Q222.8 242.3 224.5 241.1 227.2 239.1 229.5 239.1 234.2 239.1 237.3 242.9 240.4 246.7 240.4 252.9 240.4 259.1 237.3 262.9 234.2 266.7 229.5 266.7 227.2 266.7 224.5 264.7 222.8 263.5 221.3 260zM238.1 252.9Q238.1 246.5 235.4 243.8 232.7 241 229.7 241 226.8 241 224 243.8 221.4 246.5 221.4 252.9 221.4 259.3 224 262 226.8 264.8 229.7 264.8 232.7 264.8 235.4 262 238.1 259.3 238.1 252.9zM267.6 251.8L267.6 253.2 247.7 253.2Q247.7 259.5 250.1 262 252.9 264.8 258.2 264.8 259.6 264.8 262 264.2 264.3 263.6 266.6 262.4L266.6 264.7Q264.3 265.6 261.8 266.2 259.4 266.7 258 266.7 251.9 266.7 248.8 263.4 245.5 259.9 245.5 253.2 245.5 246.1 248.5 242.7 251.7 239.1 257.2 239.1 262.4 239.1 265 242.5 267.6 246.1 267.6 251.8zM265.4 251.3Q265.4 245.8 262.9 243.3 260.9 241 257.3 241 253.4 241 250.7 243.4 248.3 245.5 247.8 251.3zM288.4 241.6Q287.9 241.3 287 241.2 286.2 241 285 241 281 241 278.4 244 276.3 246.4 276.3 252.2L276.3 266 274.2 266 274.2 239.8 276.3 239.8 276.3 244.7Q277.4 242.6 279.3 241.1 281.9 239.1 285.5 239.1 286.4 239.1 287.1 239.2 287.8 239.2 288.4 239.4zM324 250.2L324 266 321.8 266 321.8 250.3Q321.8 245.2 320.2 243.1 318.6 241 315.4 241 311.6 241 309 243.3 306.3 245.5 306.3 251.2L306.3 266 304.2 266 304.2 239.8 306.3 239.8 306.3 244.7Q307.5 242.3 309.3 241 312.1 239.1 315.5 239.1 319.4 239.1 321.7 241.8 324 244.4 324 250.2zM352.5 251.8L352.5 253.2 332.6 253.2Q332.6 259.5 335.1 262 337.8 264.8 343.2 264.8 344.6 264.8 346.9 264.2 349.2 263.6 351.5 262.4L351.5 264.7Q349.2 265.6 346.8 266.2 344.3 266.7 342.9 266.7 336.8 266.7 333.8 263.4 330.4 259.9 330.4 253.2 330.4 246.1 333.5 242.7 336.6 239.1 342.2 239.1 347.3 239.1 349.9 242.5 352.5 246.1 352.5 251.8zM350.4 251.3Q350.4 245.8 347.9 243.3 345.8 241 342.2 241 338.3 241 335.6 243.4 333.2 245.5 332.7 251.3zM361.4 232.3L361.4 239.8 370.3 239.8 370.3 241.6 361.4 241.6 361.4 257.4Q361.4 260.4 362.2 261.5 363.8 264.2 366.8 264.2L370.3 264.2 370.3 266 366.9 266Q363.7 266 361.5 264.1 359.2 262.3 359.2 257.4L359.2 241.6 356.1 241.6 356.1 239.8 359.2 239.8 359.2 232.3zM373 239.8L375.3 239.8 381.4 263.1 387.6 239.8 390.3 239.8 396.5 263.3 402.6 239.8 404.8 239.8 398 266 395 266 388.9 243 382.9 266 379.9 266zM421.5 241Q417.5 241 415.1 244.2 412.8 247.4 412.8 252.9 412.8 258.4 415.1 261.6 417.4 264.8 421.5 264.8 425.5 264.8 427.8 261.6 430.1 258.4 430.1 252.9 430.1 247.5 427.8 244.3 425.5 241 421.5 241zM421.5 239.1Q426.5 239.1 429.4 242.9 432.3 246.6 432.3 252.9 432.3 259.3 429.4 263 426.5 266.8 421.5 266.8 416.4 266.8 413.5 263.1 410.6 259.3 410.6 252.9 410.6 246.6 413.5 242.8 416.4 239.1 421.5 239.1zM453.3 241.6Q452.8 241.3 451.9 241.2 451.1 241 449.9 241 445.9 241 443.3 244 441.2 246.4 441.2 252.2L441.2 266 439.1 266 439.1 239.8 441.2 239.8 441.2 244.7Q442.3 242.6 444.2 241.1 446.8 239.1 450.4 239.1 451.3 239.1 452 239.2 452.7 239.2 453.3 239.4zM458.5 229.5L460.7 229.5 460.7 251.7 473.7 239.8 476.7 239.8 463.1 252.1 477.1 266 474.3 266 460.7 252.5 460.7 266 458.5 266zM49 27L49 163 77 163Q113 163 130 146 147 130 147 94 147 59 130 43 113 27 77 27zM25 7L74 7Q124 7 148 28 172 49 172 94 172 140 148 161 124 182 73 182L25 182zM305 111L305 122 206 122Q207 144 219 156 231 167 252 167 265 167 276 164 289 161 300 155L300 175Q288 180 276 183 264 185 251 185 220 185 201 167 183 149 183 118 183 86 200 67 218 48 247 48 274 48 289 65 305 82 305 111zM284 105Q283 87 273 76 264 66 248 66 230 66 219 76 208 86 206 105zM307 51L330 51 371 161 412 51 435 51 386 182 356 182zM479 17L479 173 514 173Q553 173 571 154 590 135 590 95 590 54 571 36 553 17 513 17zM467 7L510 7Q558 7 580 28 603 49 602 94 603 140 580 161 558 182 510 182L467 182zM669 57Q649 57 637 73 626 89 625 116 626 144 637 160 649 176 669 176 689 176 700 160 713 144 712 116 713 89 700 73 689 57 669 57zM669 48Q694 48 708 66 723 85 723 116 723 149 708 167 694 186 669 186 644 186 629 167 615 149 614 116 615 85 629 66 644 48 669 48zM789 57Q769 57 757 73 746 89 745 116 746 144 757 160 769 176 789 176 809 176 820 160 833 144 832 116 833 89 820 73 809 57 789 57zM789 48Q814 48 828 66 843 85 843 116 843 149 828 167 814 186 789 186 764 186 749 167 735 149 734 116 735 85 749 66 764 48 789 48zM950 81L950 0 961 0 961 182 950 182 950 152Q943 169 934 176 921 185 909 185 886 185 870 166 855 147 854 117 855 86 870 67 886 48 909 48 921 48 934 57 943 64 950 81zM866 117Q866 149 879 162 893 176 908 176 923 176 936 162 950 149 949 117 950 85 936 71 923 57 908 57 893 57 879 71 866 85 866 117zM983 0L994 0 994 182 983 182zM1122 111L1122 118 1023 118Q1023 149 1035 162 1049 176 1076 176 1083 176 1094 173 1106 170 1117 164L1118 175Q1106 180 1094 183 1082 185 1074 185 1044 185 1029 169 1012 152 1012 118 1012 83 1027 66 1043 48 1071 48 1097 48 1109 65 1122 82 1122 111zM1112 109Q1112 81 1099 68 1089 57 1071 57 1052 57 1038 69 1026 80 1023 109zM0 208L1280 208 1280 212 0 212 0 208z" />
</svg>